<?xml version="1.0"?>
<svg version="1.1" xmlns="http://www.w3.org/2000/svg" width="400px" height="71px" style=""><path fill="#705a70" d="M1.19970703125,51.9150390625q-0.01904296875-0.5712890625-0.01904296875-1.142578125q0-1.7900390625,0.1904296875-3.59912109375q0.228515625-2.3994140625,0.3046875-4.72265625q0.076171875-2.72314453125,0.228515625-5.65576171875q0.09521484375-1.599609375,0.09521484375-3.1611328125q0-1.27587890625-0.05712890625-2.53271484375q0.1904296875-0.43798828125,0.504638671875-0.59033203125t0.790283203125-0.15234375q0.228515625,0,0.485595703125,0.0380859375t0.447509765625,0.1904296875q0.2666015625,0.0380859375,0.656982421875,0.076171875t0.599853515625,0.228515625q0.076171875,0.1142578125,0.390380859375,0.78076171875t0.74267578125,1.61865234375t0.89501953125,2.066162109375t0.89501953125,2.11376953125t0.74267578125,1.761474609375t0.390380859375,0.9521484375q1.7900390625-3.2373046875,3.50390625-6.655517578125t3.75146484375-6.446044921875q0.1904296875-0.2666015625,0.656982421875-0.390380859375t0.771240234375-0.123779296875q0.81884765625,0,1.190185546875,0.390380859375t0.485595703125,0.999755859375q0.076171875,0.380859375,0.09521484375,0.81884765625q0.01904296875,0.228515625-0.01904296875,0.47607421875q-0.076171875,0.70458984375-0.076171875,1.3330078125q0,4.43701171875-0.3046875,8.807373046875t-0.55224609375,8.826416015625q-0.0380859375,0.9140625-0.0380859375,1.904296875t0.0380859375,2.056640625q0.01904296875,0.380859375,0.01904296875,0.74267578125q0,1.67578125-0.28564453125,3.123046875q-0.2666015625,0.43798828125-0.8759765625,0.55224609375t-1.0283203125,0.1142578125q-0.89501953125,0-1.7138671875-0.4189453125l-0.20947265625-0.24755859375l-0.076171875-0.3046875t-0.0380859375-0.3046875q0-2.76123046875,0.199951171875-5.560546875t0.447509765625-5.589111328125t0.523681640625-5.570068359375t0.466552734375-5.560546875q-1.12353515625,1.8662109375-2.180419921875,3.799072265625t-1.989990234375,3.932373046875q-0.3427734375,0.78076171875-0.656982421875,1.67578125t-0.752197265625,1.599609375q-0.228515625,0.3427734375-0.771240234375,0.4189453125t-0.942626953125,0.076171875q-0.380859375,0-0.790283203125-0.13330078125t-0.561767578125-0.5712890625q-0.70458984375-2.15185546875-1.50439453125-4.20849609375t-1.61865234375-4.17041015625q0,1.4091796875,0.05712890625,3.646728515625t0.05712890625,4.636962890625t-0.076171875,4.58935546875t-0.36181640625,3.4658203125q-0.076171875,0.47607421875-0.618896484375,0.59033203125t-0.942626953125,0.1142578125q-0.3046875,0-0.580810546875-0.0380859375t-0.542724609375-0.15234375z M23.816469726562,47.89697265625q0-1.294921875,0.352294921875-2.49462890625t1.056884765625-2.142333984375t1.761474609375-1.50439453125t2.447021484375-0.561767578125q0.85693359375,0,1.894775390625,0.257080078125t1.951904296875,0.76171875t1.5234375,1.285400390625t0.609375,1.7900390625q0,0.47607421875-0.161865234375,0.7236328125t-0.656982421875,0.24755859375l-0.20947265625-0.0380859375q0.55224609375,1.4853515625,0.9521484375,3.046875t0.78076171875,3.123046875q0.15234375,0.3046875,0.228515625,0.542724609375t0.076171875,0.466552734375q0,0.3046875-0.17138671875,0.504638671875t-0.447509765625,0.295166015625t-0.5712890625,0.13330078125t-0.523681640625,0.0380859375q-0.81884765625,0-1.228271484375-0.28564453125t-0.59033203125-0.78076171875t-0.218994140625-1.114013671875t-0.15234375-1.247314453125q-0.228515625,0.74267578125-0.599853515625,1.447265625t-0.8759765625,1.266357421875t-1.190185546875,0.89501953125t-1.54248046875,0.333251953125q-1.2568359375,0-2.11376953125-0.7236328125t-1.380615234375-1.780517578125t-0.76171875-2.256591796875t-0.238037109375-2.22802734375z M26.520571289062,47.63037109375q0,0.70458984375,0.09521484375,1.4853515625t0.314208984375,1.54248046875t0.561767578125,1.437744140625t0.85693359375,1.190185546875q0.93310546875-1.00927734375,1.380615234375-2.45654296875t0.7998046875-2.789794921875t0.7998046875-2.30419921875t1.380615234375-0.961669921875q0.59033203125,0,0.990234375,0.20947265625q-0.1904296875-0.47607421875-0.62841796875-0.923583984375t-0.980712890625-0.81884765625t-1.12353515625-0.609375t-1.094970703125-0.238037109375q-0.15234375,0-0.352294921875,0.047607421875t-0.314208984375,0.009521484375q-0.78076171875,0.228515625-1.285400390625,0.790283203125t-0.81884765625,1.323486328125t-0.447509765625,1.5615234375t-0.13330078125,1.50439453125z M40.320439453125,42.56494140625q0-0.78076171875,0.276123046875-1.31396484375t1.171142578125-0.533203125q0.3427734375,0,0.85693359375,0.104736328125t0.59033203125,0.523681640625q0.1904296875,1.12353515625,0.20947265625,2.4375t0.13330078125,2.4755859375q0.43798828125-0.85693359375,1.12353515625-1.84716796875t1.5615234375-1.828125t1.904296875-1.39013671875t2.0947265625-0.55224609375q0.076171875,0,0.28564453125,0.05712890625t0.390380859375,0.161865234375t0.218994140625,0.238037109375t-0.20947265625,0.24755859375q-0.076171875,0.228515625-0.32373046875,0.276123046875t-0.43798828125,0.047607421875q-0.1142578125,0-0.36181640625-0.09521484375q-1.4091796875,0.74267578125-2.3994140625,2.0185546875t-1.61865234375,2.827880859375t-0.9140625,3.275390625t-0.28564453125,3.361083984375q0,0.81884765625-0.371337890625,0.990234375t-1.190185546875,0.17138671875q-0.43798828125,0-0.923583984375-0.09521484375t-0.676025390625-0.609375q-0.3427734375-1.08544921875-0.561767578125-2.49462890625t-0.333251953125-2.904052734375t-0.161865234375-2.942138671875t-0.047607421875-2.60888671875z M53.853706054687,47.43994140625q0-1.751953125,0.409423828125-3.437255859375t0.695068359375-3.361083984375q0.076171875-0.43798828125,0.599853515625-0.542724609375t0.885498046875-0.104736328125q0.62841796875,0,1.00927734375,0.1904296875q0.15234375,0.076171875,0.28564453125,0.17138671875t0.13330078125,0.24755859375q0,1.6376953125-0.390380859375,3.19921875t-0.390380859375,3.3134765625q0,0.59033203125,0.085693359375,1.114013671875t0.161865234375,1.037841796875l0.1142578125,0.55224609375q0,0.15234375,0.01904296875,0.2666015625t0.05712890625,0.2666015625q0,0.3427734375-0.485595703125,0.466552734375t-0.847412109375,0.123779296875q-0.55224609375,0-1.018798828125-0.218994140625t-0.733154296875-0.752197265625l-0.2666015625-0.55224609375q-0.228515625-0.43798828125-0.228515625-0.980712890625t-0.09521484375-0.999755859375z M55.072456054687,35.97607421875l0-0.36181640625q0-0.89501953125,0.447509765625-1.599609375t1.342529296875-0.70458984375q0.1142578125,0,0.218994140625,0.01904296875t0.218994140625,0.01904296875q0.228515625,0.0380859375,0.599853515625,0.180908203125t0.371337890625,0.447509765625l0,0.0380859375q-0.076171875,0.15234375-0.09521484375,0.314208984375t-0.09521484375,0.276123046875l0.0380859375-0.0380859375q-0.228515625,0.59033203125-0.371337890625,0.9521484375t-0.314208984375,0.580810546875t-0.428466796875,0.314208984375t-0.733154296875,0.09521484375q-0.076171875,0-0.2666015625-0.01904296875t-0.409423828125-0.076171875t-0.371337890625-0.15234375t-0.15234375-0.28564453125z M62.16919921875,47.89697265625q0-1.294921875,0.352294921875-2.49462890625t1.056884765625-2.142333984375t1.761474609375-1.50439453125t2.447021484375-0.561767578125q0.85693359375,0,1.894775390625,0.257080078125t1.951904296875,0.76171875t1.5234375,1.285400390625t0.609375,1.7900390625q0,0.47607421875-0.161865234375,0.7236328125t-0.656982421875,0.24755859375l-0.20947265625-0.0380859375q0.55224609375,1.4853515625,0.9521484375,3.046875t0.78076171875,3.123046875q0.15234375,0.3046875,0.228515625,0.542724609375t0.076171875,0.466552734375q0,0.3046875-0.17138671875,0.504638671875t-0.447509765625,0.295166015625t-0.5712890625,0.13330078125t-0.523681640625,0.0380859375q-0.81884765625,0-1.228271484375-0.28564453125t-0.59033203125-0.78076171875t-0.218994140625-1.114013671875t-0.15234375-1.247314453125q-0.228515625,0.74267578125-0.599853515625,1.447265625t-0.8759765625,1.266357421875t-1.190185546875,0.89501953125t-1.54248046875,0.333251953125q-1.2568359375,0-2.11376953125-0.7236328125t-1.380615234375-1.780517578125t-0.76171875-2.256591796875t-0.238037109375-2.22802734375z M64.87330078125,47.63037109375q0,0.70458984375,0.09521484375,1.4853515625t0.314208984375,1.54248046875t0.561767578125,1.437744140625t0.85693359375,1.190185546875q0.93310546875-1.00927734375,1.380615234375-2.45654296875t0.7998046875-2.789794921875t0.7998046875-2.30419921875t1.380615234375-0.961669921875q0.59033203125,0,0.990234375,0.20947265625q-0.1904296875-0.47607421875-0.62841796875-0.923583984375t-0.980712890625-0.81884765625t-1.12353515625-0.609375t-1.094970703125-0.238037109375q-0.15234375,0-0.352294921875,0.047607421875t-0.314208984375,0.009521484375q-0.78076171875,0.228515625-1.285400390625,0.790283203125t-0.81884765625,1.323486328125t-0.447509765625,1.5615234375t-0.13330078125,1.50439453125z M78.692211914062,47.9921875l0-0.55224609375q0-0.685546875,0.0380859375-1.294921875q0.0380859375-0.85693359375,0.0380859375-1.4091796875q0-0.3046875,0.0380859375-0.695068359375t0.1904296875-0.618896484375q0.1904296875-0.1904296875,0.447509765625-0.390380859375t0.561767578125-0.199951171875q0.97119140625,0,1.5234375,0.218994140625t0.59033203125,0.904541015625l0.076171875,0.59033203125q0.3427734375-0.81884765625,0.9140625-2.028076171875t1.323486328125-2.30419921875t1.69482421875-1.8662109375t1.989990234375-0.771240234375q0.97119140625,0,1.599609375,0.9140625t0.999755859375,2.332763671875t0.523681640625,3.1611328125t0.20947265625,3.418212890625t0.076171875,3.056396484375t0.13330078125,2.085205078125q0.076171875,0.59033203125,0.257080078125,1.247314453125t0.180908203125,1.209228515625q0,0.15234375-0.218994140625,0.295166015625t-0.466552734375,0.238037109375t-0.504638671875,0.15234375t-0.371337890625,0.05712890625q-0.74267578125,0-1.056884765625-1.114013671875t-0.390380859375-2.789794921875t-0.076171875-3.627685546875t-0.13330078125-3.627685546875t-0.542724609375-2.789794921875t-1.304443359375-1.152099609375q-0.81884765625,0-1.69482421875,1.056884765625t-1.50439453125,2.808837890625q-0.609375,1.751953125-0.837890625,3.97998046875q-0.076171875,0.70458984375-0.076171875,1.4091796875q0,1.54248046875,0.32373046875,3.0849609375q0.0380859375,0.2666015625-0.218994140625,0.39990234375t-0.637939453125,0.20947265625t-0.771240234375,0.09521484375t-0.599853515625,0.01904296875q-0.74267578125,0-1.190185546875-0.523681640625t-0.695068359375-1.342529296875t-0.333251953125-1.837646484375t-0.104736328125-2.009033203125z M103.34028808594,32.100830078125q-0.0380859375-0.504638671875,0.085693359375-0.9521484375t0.466552734375-0.74267578125t1.16162109375-0.295166015625q0.1904296875,0,0.466552734375,0.0380859375t0.55224609375,0.123779296875t0.447509765625,0.238037109375t0.17138671875,0.4189453125q0,0.70458984375,0.047607421875,1.856689453125t0.123779296875,2.3994140625t0.142822265625,2.4375t0.123779296875,1.932861328125q1.4853515625-0.076171875,2.98974609375-0.076171875t2.970703125-0.076171875l2.6279296875-0.076171875l0-1.88525390625q0-3.1611328125-0.123779296875-6.331787109375t-0.428466796875-6.331787109375q0-0.228515625,0.1904296875-0.371337890625t0.447509765625-0.218994140625t0.533203125-0.09521484375t0.428466796875-0.01904296875q0.43798828125,0,0.942626953125,0.13330078125t0.580810546875,0.5712890625l0.1142578125,0.81884765625q0.47607421875,3.427734375,0.6474609375,6.779296875t0.24755859375,6.703125q0.228515625,0.0380859375,0.485595703125,0.123779296875t0.523681640625,0.161865234375q0.1904296875,0.076171875,0.542724609375,0.228515625t0.352294921875,0.47607421875q0,0.3046875-0.2666015625,0.47607421875t-0.599853515625,0.257080078125t-0.6474609375,0.104736328125t-0.390380859375,0.01904296875q0.0380859375,1.4091796875,0.0380859375,2.808837890625l0,2.808837890625l0,6.15087890625l0,3.427734375q0,0.228515625-0.218994140625,0.409423828125t-0.523681640625,0.295166015625t-0.637939453125,0.15234375t-0.599853515625,0.0380859375t-0.62841796875-0.0380859375t-0.6474609375-0.15234375t-0.504638671875-0.28564453125t-0.218994140625-0.4189453125l0-0.81884765625q0.076171875-3.6181640625,0.17138671875-7.169677734375t0.1904296875-7.131591796875q-2.07568359375,0.076171875-4.218017578125,0.09521484375t-4.256103515625,0.09521484375q0.228515625,2.68505859375,0.523681640625,5.360595703125t0.618896484375,5.360595703125q0,0.228515625-0.218994140625,0.409423828125t-0.51416015625,0.295166015625t-0.62841796875,0.15234375t-0.599853515625,0.0380859375q-0.55224609375,0-1.209228515625-0.1904296875t-0.733154296875-0.70458984375q-0.228515625-2.0185546875-0.428466796875-4.4560546875t-0.352294921875-4.979736328125t-0.238037109375-4.979736328125t-0.085693359375-4.41796875q0-0.47607421875-0.0380859375-0.980712890625z M125.1001171875,47.89697265625q0-1.294921875,0.352294921875-2.49462890625t1.056884765625-2.142333984375t1.761474609375-1.50439453125t2.447021484375-0.561767578125q0.85693359375,0,1.894775390625,0.257080078125t1.951904296875,0.76171875t1.5234375,1.285400390625t0.609375,1.7900390625q0,0.47607421875-0.161865234375,0.7236328125t-0.656982421875,0.24755859375l-0.20947265625-0.0380859375q0.55224609375,1.4853515625,0.9521484375,3.046875t0.78076171875,3.123046875q0.15234375,0.3046875,0.228515625,0.542724609375t0.076171875,0.466552734375q0,0.3046875-0.17138671875,0.504638671875t-0.447509765625,0.295166015625t-0.5712890625,0.13330078125t-0.523681640625,0.0380859375q-0.81884765625,0-1.228271484375-0.28564453125t-0.59033203125-0.78076171875t-0.218994140625-1.114013671875t-0.15234375-1.247314453125q-0.228515625,0.74267578125-0.599853515625,1.447265625t-0.8759765625,1.266357421875t-1.190185546875,0.89501953125t-1.54248046875,0.333251953125q-1.2568359375,0-2.11376953125-0.7236328125t-1.380615234375-1.780517578125t-0.76171875-2.256591796875t-0.238037109375-2.22802734375z M127.80421875,47.63037109375q0,0.70458984375,0.09521484375,1.4853515625t0.314208984375,1.54248046875t0.561767578125,1.437744140625t0.85693359375,1.190185546875q0.93310546875-1.00927734375,1.380615234375-2.45654296875t0.7998046875-2.789794921875t0.7998046875-2.30419921875t1.380615234375-0.961669921875q0.59033203125,0,0.990234375,0.20947265625q-0.1904296875-0.47607421875-0.62841796875-0.923583984375t-0.980712890625-0.81884765625t-1.12353515625-0.609375t-1.094970703125-0.238037109375q-0.15234375,0-0.352294921875,0.047607421875t-0.314208984375,0.009521484375q-0.78076171875,0.228515625-1.285400390625,0.790283203125t-0.81884765625,1.323486328125t-0.447509765625,1.5615234375t-0.13330078125,1.50439453125z M141.60408691406,54.6572265625q0-0.55224609375,0.047607421875-1.16162109375t0.085693359375-1.142578125l0.1142578125-2.8564453125q0.1904296875-3.427734375,0.466552734375-6.7412109375t0.466552734375-6.703125q0.1142578125-1.8662109375,0.17138671875-3.665771484375t0.17138671875-3.665771484375q-0.076171875-0.15234375-0.076171875-0.20947265625q0-0.2666015625,0.199951171875-0.4189453125t0.466552734375-0.257080078125t0.561767578125-0.142822265625t0.447509765625-0.0380859375l0.43798828125,0q0.59033203125,0.076171875,0.85693359375,0.371337890625t0.3427734375,0.70458984375t0.0380859375,0.8759765625t-0.0380859375,0.866455078125q0,2.76123046875-0.13330078125,5.627197265625t-0.3046875,5.7509765625t-0.314208984375,5.77001953125t-0.142822265625,5.703369140625l0,1.3330078125q0,0.89501953125-0.504638671875,1.1806640625t-1.399658203125,0.28564453125q-0.78076171875,0-1.37109375-0.3427734375t-0.59033203125-1.12353515625z M150.33852539062,47.43994140625q0-1.751953125,0.409423828125-3.437255859375t0.695068359375-3.361083984375q0.076171875-0.43798828125,0.599853515625-0.542724609375t0.885498046875-0.104736328125q0.62841796875,0,1.00927734375,0.1904296875q0.15234375,0.076171875,0.28564453125,0.17138671875t0.13330078125,0.24755859375q0,1.6376953125-0.390380859375,3.19921875t-0.390380859375,3.3134765625q0,0.59033203125,0.085693359375,1.114013671875t0.161865234375,1.037841796875l0.1142578125,0.55224609375q0,0.15234375,0.01904296875,0.2666015625t0.05712890625,0.2666015625q0,0.3427734375-0.485595703125,0.466552734375t-0.847412109375,0.123779296875q-0.55224609375,0-1.018798828125-0.218994140625t-0.733154296875-0.752197265625l-0.2666015625-0.55224609375q-0.228515625-0.43798828125-0.228515625-0.980712890625t-0.09521484375-0.999755859375z M151.55727539062,35.97607421875l0-0.36181640625q0-0.89501953125,0.447509765625-1.599609375t1.342529296875-0.70458984375q0.1142578125,0,0.218994140625,0.01904296875t0.218994140625,0.01904296875q0.228515625,0.0380859375,0.599853515625,0.180908203125t0.371337890625,0.447509765625l0,0.0380859375q-0.076171875,0.15234375-0.09521484375,0.314208984375t-0.09521484375,0.276123046875l0.0380859375-0.0380859375q-0.228515625,0.59033203125-0.371337890625,0.9521484375t-0.314208984375,0.580810546875t-0.428466796875,0.314208984375t-0.733154296875,0.09521484375q-0.076171875,0-0.2666015625-0.01904296875t-0.409423828125-0.076171875t-0.371337890625-0.15234375t-0.15234375-0.28564453125z M158.65401855469,47.23046875q0-1.04736328125,0.199951171875-2.237548828125t0.685546875-2.180419921875t1.342529296875-1.6376953125t2.18994140625-0.6474609375q0.89501953125,0,1.73291015625,0.295166015625t1.58056640625,0.809326171875q0.228515625-0.380859375,0.7236328125-0.466552734375t0.8759765625-0.085693359375q0.15234375,0,0.428466796875,0.01904296875t0.542724609375,0.1142578125t0.466552734375,0.228515625t0.238037109375,0.380859375q0.15234375,1.3330078125,0.20947265625,2.656494140625t0.17138671875,2.637451171875q0.1904296875,2.45654296875,0.59033203125,4.85595703125t0.39990234375,4.85595703125q0,1.16162109375-0.104736328125,2.513671875t-0.55224609375,2.504150390625t-1.304443359375,1.913818359375t-2.38037109375,0.76171875q-1.37109375,0-2.104248046875-0.485595703125t-1.323486328125-1.628173828125q0.0380859375-0.380859375,0.485595703125-0.504638671875t0.771240234375-0.123779296875q0.3046875,0,0.618896484375,0.05712890625t0.504638671875,0.1904296875l0.47607421875,0.3046875q0.70458984375-1.447265625,0.85693359375-3.1611328125t0.15234375-3.3134765625q0-1.3330078125-0.13330078125-2.637451171875t-0.2666015625-2.618408203125q-1.3330078125,2.41845703125-4.05615234375,2.41845703125q-1.2568359375,0-2.047119140625-0.533203125t-1.21875-1.35205078125t-0.59033203125-1.84716796875t-0.161865234375-2.056640625z M160.99630371094,47.40185546875q0,0.47607421875,0.0380859375,1.228271484375t0.199951171875,1.475830078125t0.466552734375,1.247314453125t0.85693359375,0.523681640625q1.04736328125,0,1.65673828125-0.81884765625t0.961669921875-1.951904296875t0.561767578125-2.34228515625t0.533203125-1.989990234375q-0.0380859375-0.2666015625-0.0380859375-0.523681640625l0-0.523681640625q-0.43798828125-0.81884765625-1.27587890625-1.418701171875t-1.73291015625-0.809326171875q-0.1142578125-0.01904296875-0.20947265625-0.01904296875q-0.533203125,0-0.8759765625,0.62841796875q-0.43798828125,0.76171875-0.685546875,1.818603515625t-0.352294921875,2.085205078125t-0.104736328125,1.39013671875z M174.92947265625,47.89697265625q0-1.294921875,0.352294921875-2.49462890625t1.056884765625-2.142333984375t1.761474609375-1.50439453125t2.447021484375-0.561767578125q0.85693359375,0,1.894775390625,0.257080078125t1.951904296875,0.76171875t1.5234375,1.285400390625t0.609375,1.7900390625q0,0.47607421875-0.161865234375,0.7236328125t-0.656982421875,0.24755859375l-0.20947265625-0.0380859375q0.55224609375,1.4853515625,0.9521484375,3.046875t0.78076171875,3.123046875q0.15234375,0.3046875,0.228515625,0.542724609375t0.076171875,0.466552734375q0,0.3046875-0.17138671875,0.504638671875t-0.447509765625,0.295166015625t-0.5712890625,0.13330078125t-0.523681640625,0.0380859375q-0.81884765625,0-1.228271484375-0.28564453125t-0.59033203125-0.78076171875t-0.218994140625-1.114013671875t-0.15234375-1.247314453125q-0.228515625,0.74267578125-0.599853515625,1.447265625t-0.8759765625,1.266357421875t-1.190185546875,0.89501953125t-1.54248046875,0.333251953125q-1.2568359375,0-2.11376953125-0.7236328125t-1.380615234375-1.780517578125t-0.76171875-2.256591796875t-0.238037109375-2.22802734375z M177.63357421875,47.63037109375q0,0.70458984375,0.09521484375,1.4853515625t0.314208984375,1.54248046875t0.561767578125,1.437744140625t0.85693359375,1.190185546875q0.93310546875-1.00927734375,1.380615234375-2.45654296875t0.7998046875-2.789794921875t0.7998046875-2.30419921875t1.380615234375-0.961669921875q0.59033203125,0,0.990234375,0.20947265625q-0.1904296875-0.47607421875-0.62841796875-0.923583984375t-0.980712890625-0.81884765625t-1.12353515625-0.609375t-1.094970703125-0.238037109375q-0.15234375,0-0.352294921875,0.047607421875t-0.314208984375,0.009521484375q-0.78076171875,0.228515625-1.285400390625,0.790283203125t-0.81884765625,1.323486328125t-0.447509765625,1.5615234375t-0.13330078125,1.50439453125z M191.43344238281,49.97265625l0-1.7900390625q0-0.97119140625,0.047607421875-2.751708984375t0.123779296875-3.90380859375t0.20947265625-4.427490234375t0.3046875-4.351318359375t0.409423828125-3.665771484375t0.542724609375-2.3994140625q0.1904296875-0.43798828125,0.62841796875-0.55224609375t0.85693359375-0.1142578125q0.66650390625,0,1.171142578125,0.295166015625t0.504638671875,1.075927734375l-0.3427734375,0.380859375q-0.66650390625,4.39892578125-0.85693359375,8.8359375t-0.2666015625,8.8740234375q0.47607421875-0.74267578125,1.075927734375-1.456787109375t1.3330078125-1.266357421875t1.58056640625-0.885498046875t1.856689453125-0.333251953125q1.294921875,0,2.142333984375,0.78076171875t1.399658203125,2.028076171875t0.81884765625,2.789794921875t0.409423828125,3.0849609375t0.199951171875,2.923095703125t0.17138671875,2.294677734375q-0.36181640625,0.4951171875-1.06640625,0.4951171875l-0.05712890625,0q-0.3046875,0-0.66650390625-0.076171875t-0.47607421875-0.380859375l0.0380859375,0.0380859375q-0.2666015625-0.59033203125-0.36181640625-1.704345703125t-0.15234375-2.45654296875t-0.199951171875-2.751708984375t-0.428466796875-2.5517578125t-0.837890625-1.88525390625t-1.4853515625-0.78076171875l-0.1142578125,0q-1.12353515625,0-1.88525390625,0.685546875q-0.7998046875,0.7236328125-1.294921875,1.904296875t-0.76171875,2.6279296875t-0.409423828125,2.789794921875t-0.218994140625,2.4375t-0.1904296875,1.609130859375q-0.1142578125,0.43798828125-0.676025390625,0.580810546875t-0.961669921875,0.142822265625q-0.93310546875,0-1.5234375-0.533203125q-0.43798828125-1.04736328125-0.51416015625-2.60888671875t-0.076171875-3.046875z"/><path fill="#f0b4d4" d="M22.456,49.864c0.028,0.476-0.112,0.756-0.644,0.756l-2.268,0c-0.588,0-0.7-0.28-0.728-0.924l-0.392-11.368l-0.056,0l-4.76,11.788c-0.168,0.448-0.448,0.504-0.756,0.504l-0.98,0c-0.42,0-0.672-0.084-0.868-0.532l-5.292-11.76l-0.056,0l-0.252,11.592c0,0.616-0.252,0.7-0.756,0.7l-1.904,0c-0.532,0-0.756-0.196-0.728-0.728l0.7-17.892c0.028-0.588,0.224-0.756,0.672-0.756l1.652,0c0.56,0,0.756,0.196,0.952,0.616l6.468,13.832l0.056,0l5.908-13.832c0.168-0.42,0.392-0.616,0.896-0.616l1.652,0c0.448,0,0.616,0.168,0.644,0.616z M41.062,50.088c0,0.336-0.224,0.532-0.56,0.532l-1.344,0c-1.456,0-2.1-0.7-2.296-1.652l-0.056,0c-0.7,1.036-2.52,1.988-4.06,1.988c-3.948,0-5.74-3.248-5.74-6.888c0-4.844,2.912-7.392,6.048-7.392c1.484,0,2.884,0.672,3.584,1.624l0.056-0.756c0.028-0.308,0.252-0.504,0.588-0.504l1.96,0c0.364,0,0.588,0.196,0.588,0.616l0,9.716c0,0.392,0.056,0.672,0.168,0.812c0.084,0.084,0.196,0.112,0.336,0.112l0.224,0c0.336,0,0.504,0.112,0.504,0.476l0,1.316z M36.442,46.28l0-5.404c-0.56-0.812-1.708-1.428-2.772-1.428c-1.708,0-3.164,1.456-3.164,4.396c0,2.352,0.896,4.34,2.968,4.34c1.372,0,2.548-1.036,2.968-1.904z M52.836,37.152c0,0.084,0,0.168-0.028,0.252l-0.308,1.988c-0.028,0.252-0.168,0.364-0.392,0.364l-0.112,0c-0.224-0.056-0.504-0.084-0.756-0.084c-0.952,0-1.988,0.504-2.688,1.344l0,8.904c0,0.448-0.196,0.7-0.672,0.7l-2.044,0c-0.448,0-0.672-0.224-0.672-0.7l0-8.736l0-3.444c0-0.56,0.28-0.7,0.7-0.7l1.792,0c0.448,0,0.7,0.14,0.7,0.532l0.028,0.896c0.868-1.092,1.82-1.792,3.388-1.792c0.224,0,0.532,0.056,0.784,0.112c0.196,0.056,0.28,0.14,0.28,0.364z M60.27,33.484c0,1.092-0.952,1.764-1.876,1.764s-1.904-0.616-1.904-1.736s0.924-1.792,1.904-1.792c0.952,0,1.876,0.644,1.876,1.764z M60.102,49.92c0,0.504-0.224,0.7-0.7,0.7l-1.96,0c-0.504,0-0.728-0.196-0.728-0.7l0-12.236c0-0.476,0.28-0.644,0.728-0.644l1.96,0c0.448,0,0.7,0.14,0.7,0.644l0,12.236z M78.652,50.088c0,0.336-0.224,0.532-0.56,0.532l-1.344,0c-1.456,0-2.1-0.7-2.296-1.652l-0.056,0c-0.7,1.036-2.52,1.988-4.06,1.988c-3.948,0-5.74-3.248-5.74-6.888c0-4.844,2.912-7.392,6.048-7.392c1.484,0,2.884,0.672,3.584,1.624l0.056-0.756c0.028-0.308,0.252-0.504,0.588-0.504l1.96,0c0.364,0,0.588,0.196,0.588,0.616l0,9.716c0,0.392,0.056,0.672,0.168,0.812c0.084,0.084,0.196,0.112,0.336,0.112l0.224,0c0.336,0,0.504,0.112,0.504,0.476l0,1.316z M74.032,46.28l0-5.404c-0.56-0.812-1.708-1.428-2.772-1.428c-1.708,0-3.164,1.456-3.164,4.396c0,2.352,0.896,4.34,2.968,4.34c1.372,0,2.548-1.036,2.968-1.904z M94.934,49.892c0,0.476-0.168,0.728-0.672,0.728l-2.016,0c-0.504,0-0.672-0.252-0.672-0.728l0-7.616c0-1.54-0.42-2.632-2.128-2.632c-1.092,0-2.436,0.588-3.304,1.344l0,8.932c0,0.476-0.196,0.7-0.672,0.7l-2.044,0c-0.42,0-0.672-0.224-0.672-0.672l0-12.208c0-0.448,0.196-0.7,0.7-0.7l1.82,0c0.392,0,0.644,0.112,0.672,0.532l0.028,0.728c1.288-1.036,2.912-1.624,4.536-1.624c3.136,0,4.424,1.96,4.424,5.012l0,8.204z M123.942,49.92c0,0.504-0.196,0.7-0.672,0.7l-2.212,0c-0.504,0-0.728-0.196-0.728-0.7l0-7.812l-7.952,0l0,7.812c0,0.504-0.224,0.7-0.7,0.7l-2.184,0c-0.504,0-0.756-0.196-0.756-0.7l0-18.004c0-0.476,0.308-0.672,0.756-0.672l2.184,0c0.448,0,0.7,0.168,0.7,0.672l0,7.308l7.952,0l0-7.308c0-0.476,0.28-0.672,0.728-0.672l2.212,0c0.448,0,0.672,0.168,0.672,0.672l0,18.004z M142.688,50.088c0,0.336-0.224,0.532-0.56,0.532l-1.344,0c-1.456,0-2.1-0.7-2.296-1.652l-0.056,0c-0.7,1.036-2.52,1.988-4.06,1.988c-3.948,0-5.74-3.248-5.74-6.888c0-4.844,2.912-7.392,6.048-7.392c1.484,0,2.884,0.672,3.584,1.624l0.056-0.756c0.028-0.308,0.252-0.504,0.588-0.504l1.96,0c0.364,0,0.588,0.196,0.588,0.616l0,9.716c0,0.392,0.056,0.672,0.168,0.812c0.084,0.084,0.196,0.112,0.336,0.112l0.224,0c0.336,0,0.504,0.112,0.504,0.476l0,1.316z M138.068,46.28l0-5.404c-0.56-0.812-1.708-1.428-2.772-1.428c-1.708,0-3.164,1.456-3.164,4.396c0,2.352,0.896,4.34,2.968,4.34c1.372,0,2.548-1.036,2.968-1.904z M150.178,49.92c0,0.476-0.224,0.7-0.616,0.7l-2.128,0c-0.392,0-0.644-0.196-0.644-0.672l0-18.368c0-0.476,0.196-0.616,0.56-0.672l2.016-0.28c0.056,0,0.14-0.028,0.196-0.028c0.336,0,0.616,0.168,0.616,0.616l0,18.704z M159.152,33.484c0,1.092-0.952,1.764-1.876,1.764s-1.904-0.616-1.904-1.736s0.924-1.792,1.904-1.792c0.952,0,1.876,0.644,1.876,1.764z M158.984,49.92c0,0.504-0.224,0.7-0.7,0.7l-1.96,0c-0.504,0-0.728-0.196-0.728-0.7l0-12.236c0-0.476,0.28-0.644,0.728-0.644l1.96,0c0.448,0,0.7,0.14,0.7,0.644l0,12.236z M176.442,49.696c0,4.536-1.932,7.056-6.636,7.056c-1.372,0-2.8-0.28-4.144-0.868c-0.308-0.14-0.448-0.308-0.448-0.56c0-0.14,0.056-0.252,0.084-0.364l0.392-1.232c0.112-0.308,0.224-0.504,0.42-0.504c0.14,0,0.28,0.056,0.42,0.112c1.008,0.42,2.156,0.728,3.136,0.728c2.8,0,3.388-1.484,3.388-3.724l0-1.12c-0.84,0.812-2.408,1.428-3.64,1.428c-1.736,0-3.136-0.56-4.116-1.596c-1.176-1.204-1.764-3.024-1.764-5.068c0-3.752,2.184-7.28,6.244-7.28c0.672,0,1.372,0.168,2.016,0.448c0.532,0.224,1.092,0.644,1.428,1.12l0.056-0.728c0.028-0.364,0.224-0.504,0.644-0.504l1.848,0c0.504,0,0.672,0.196,0.672,0.672l0,11.984z M173.054,46.56l0-5.768c-0.56-0.756-1.652-1.372-2.716-1.372c-0.868,0-1.568,0.336-2.072,0.812c-0.868,0.84-1.204,2.268-1.204,3.556c0,1.232,0.28,2.548,1.12,3.36c0.504,0.504,1.232,0.756,1.988,0.756c1.092,0,2.324-0.644,2.884-1.344z M194.824,50.088c0,0.336-0.224,0.532-0.56,0.532l-1.344,0c-1.456,0-2.1-0.7-2.296-1.652l-0.056,0c-0.7,1.036-2.52,1.988-4.06,1.988c-3.948,0-5.74-3.248-5.74-6.888c0-4.844,2.912-7.392,6.048-7.392c1.484,0,2.884,0.672,3.584,1.624l0.056-0.756c0.028-0.308,0.252-0.504,0.588-0.504l1.96,0c0.364,0,0.588,0.196,0.588,0.616l0,9.716c0,0.392,0.056,0.672,0.168,0.812c0.084,0.084,0.196,0.112,0.336,0.112l0.224,0c0.336,0,0.504,0.112,0.504,0.476l0,1.316z M190.204,46.28l0-5.404c-0.56-0.812-1.708-1.428-2.772-1.428c-1.708,0-3.164,1.456-3.164,4.396c0,2.352,0.896,4.34,2.968,4.34c1.372,0,2.548-1.036,2.968-1.904z M211.162,50.06c0,0.42-0.084,0.56-0.448,0.56l-2.464,0c-0.392,0-0.476-0.112-0.476-0.56l0-7.784c0-1.512-0.42-2.632-2.1-2.632c-1.092,0-2.492,0.588-3.36,1.344l0,9.072c0,0.42-0.112,0.56-0.532,0.56l-2.408,0c-0.336,0-0.448-0.14-0.448-0.504l0-18.508c0-0.504,0.224-0.644,0.616-0.7l1.932-0.252c0.112-0.028,0.252-0.028,0.364-0.028c0.308,0,0.476,0.14,0.476,0.532l0,7.028c1.176-0.98,2.94-1.512,4.424-1.512c3.136,0,4.424,1.988,4.424,5.012l0,8.372z"/></svg>
